<svg width="25" height="24" viewBox="0 0 25 24" fill="none" xmlns="http://www.w3.org/2000/svg">
<path d="M17.8334 3.5H7.83337C4.83337 3.5 2.83337 5 2.83337 8.5V15.5C2.83337 19 4.83337 20.5 7.83337 20.5H17.8334C20.8334 20.5 22.8334 19 22.8334 15.5V8.5C22.8334 5 20.8334 3.5 17.8334 3.5ZM18.3034 9.59L15.1734 12.09C14.5134 12.62 13.6734 12.88 12.8334 12.88C11.9934 12.88 11.1434 12.62 10.4934 12.09L7.36337 9.59C7.04337 9.33 6.99337 8.85 7.24337 8.53C7.50337 8.21 7.97337 8.15 8.29337 8.41L11.4234 10.91C12.1834 11.52 13.4734 11.52 14.2334 10.91L17.3634 8.41C17.6834 8.15 18.1634 8.2 18.4134 8.53C18.6734 8.85 18.6234 9.33 18.3034 9.59Z" fill="white"/>
</svg>
