<svg width="19" height="18" viewBox="0 0 19 18" fill="none" xmlns="http://www.w3.org/2000/svg">
<path d="M4.14382 5.31301V18.0083H0.75293V5.31301H4.14382ZM0.541733 2.00425C0.541733 1.51146 0.71382 1.10471 1.05799 0.784002C1.40217 0.463296 1.86367 0.302942 2.44251 0.302942C3.01352 0.302942 3.47112 0.463296 3.81529 0.784002C4.16728 1.10471 4.34328 1.51146 4.34328 2.00425C4.34328 2.49705 4.16728 2.9038 3.81529 3.2245C3.47112 3.54521 3.01352 3.70556 2.44251 3.70556C1.86367 3.70556 1.40217 3.54521 1.05799 3.2245C0.71382 2.9038 0.541733 2.49705 0.541733 2.00425ZM10.7257 8.02337V18.0083H7.3465V5.31301H10.5145L10.7257 8.02337ZM10.2329 11.2148H9.31768C9.31768 10.2761 9.43892 9.43135 9.68141 8.68043C9.92389 7.92168 10.2642 7.27636 10.7022 6.74445C11.1402 6.20473 11.6604 5.79407 12.2627 5.51247C12.8728 5.22305 13.5534 5.07834 14.3043 5.07834C14.8988 5.07834 15.4424 5.16439 15.9352 5.33647C16.428 5.50856 16.8504 5.78233 17.2024 6.1578C17.5622 6.53326 17.836 7.02996 18.0237 7.64791C18.2192 8.26586 18.317 9.02069 18.317 9.91241V18.0083H14.9144V9.90068C14.9144 9.33749 14.8362 8.89945 14.6797 8.58656C14.5233 8.27368 14.2925 8.05466 13.9875 7.9295C13.6902 7.79653 13.3226 7.73004 12.8846 7.73004C12.4309 7.73004 12.0359 7.82 11.6995 7.9999C11.371 8.17981 11.0972 8.43012 10.8782 8.75083C10.667 9.06371 10.5066 9.43135 10.3971 9.85375C10.2876 10.2761 10.2329 10.7298 10.2329 11.2148Z" fill="white"/>
</svg>
