<svg width="23" height="22" viewBox="0 0 23 22" fill="none" xmlns="http://www.w3.org/2000/svg">
<path d="M11.0568 5.35593C7.94749 5.35593 5.43952 7.86389 5.43952 10.9732C5.43952 14.0825 7.94749 16.5904 11.0568 16.5904C14.1661 16.5904 16.674 14.0825 16.674 10.9732C16.674 7.86389 14.1661 5.35593 11.0568 5.35593ZM11.0568 14.6251C9.04747 14.6251 7.40483 12.9874 7.40483 10.9732C7.40483 8.95899 9.04258 7.32123 11.0568 7.32123C13.071 7.32123 14.7087 8.95899 14.7087 10.9732C14.7087 12.9874 13.0661 14.6251 11.0568 14.6251ZM18.214 5.12615C18.214 5.85459 17.6274 6.43636 16.9038 6.43636C16.1754 6.43636 15.5936 5.8497 15.5936 5.12615C15.5936 4.40261 16.1803 3.81595 16.9038 3.81595C17.6274 3.81595 18.214 4.40261 18.214 5.12615ZM21.9344 6.45591C21.8513 4.70082 21.4504 3.14618 20.1647 1.86531C18.8838 0.584436 17.3291 0.183552 15.574 0.0955536C13.7652 -0.00711163 8.34348 -0.00711163 6.53462 0.0955536C4.78442 0.178664 3.22977 0.579547 1.94401 1.86042C0.658252 3.14129 0.262257 4.69594 0.174258 6.45102C0.0715932 8.25989 0.0715932 13.6816 0.174258 15.4905C0.257368 17.2455 0.658252 18.8002 1.94401 20.0811C3.22977 21.3619 4.77953 21.7628 6.53462 21.8508C8.34348 21.9535 13.7652 21.9535 15.574 21.8508C17.3291 21.7677 18.8838 21.3668 20.1647 20.0811C21.4455 18.8002 21.8464 17.2455 21.9344 15.4905C22.0371 13.6816 22.0371 8.26478 21.9344 6.45591ZM19.5975 17.4313C19.2162 18.3895 18.478 19.1277 17.5149 19.514C16.0727 20.0859 12.6505 19.9539 11.0568 19.9539C9.46302 19.9539 6.03596 20.0811 4.59864 19.514C3.64043 19.1326 2.90222 18.3944 2.516 17.4313C1.94401 15.9891 2.07601 12.5669 2.07601 10.9732C2.07601 9.37943 1.9489 5.95236 2.516 4.51505C2.89733 3.55684 3.63554 2.81863 4.59864 2.43241C6.04084 1.86042 9.46302 1.99242 11.0568 1.99242C12.6505 1.99242 16.0776 1.86531 17.5149 2.43241C18.4731 2.81374 19.2113 3.55195 19.5975 4.51505C20.1695 5.95725 20.0375 9.37943 20.0375 10.9732C20.0375 12.5669 20.1695 15.994 19.5975 17.4313Z" fill="white"/>
</svg>
