<svg width="25" height="24" viewBox="0 0 25 24" fill="none" xmlns="http://www.w3.org/2000/svg">
<path d="M21.4533 8.45C20.4033 3.83 16.3733 1.75 12.8333 1.75C12.8333 1.75 12.8333 1.75 12.8233 1.75C9.29335 1.75 5.25335 3.82 4.20335 8.44C3.03335 13.6 6.19335 17.97 9.05335 20.72C10.1133 21.74 11.4733 22.25 12.8333 22.25C14.1933 22.25 15.5533 21.74 16.6033 20.72C19.4633 17.97 22.6233 13.61 21.4533 8.45ZM12.8333 13.46C11.0933 13.46 9.68335 12.05 9.68335 10.31C9.68335 8.57 11.0933 7.16 12.8333 7.16C14.5733 7.16 15.9833 8.57 15.9833 10.31C15.9833 12.05 14.5733 13.46 12.8333 13.46Z" fill="white"/>
</svg>
