<svg width="25" height="24" viewBox="0 0 25 24" fill="none" xmlns="http://www.w3.org/2000/svg">
<path d="M21.8334 8.55H17.0334C16.6234 8.55 16.2834 8.21 16.2834 7.8V3C16.2834 2.59 16.6234 2.25 17.0334 2.25C17.4434 2.25 17.7834 2.59 17.7834 3V7.05H21.8334C22.2434 7.05 22.5834 7.39 22.5834 7.8C22.5834 8.21 22.2434 8.55 21.8334 8.55Z" fill="white"/>
<path d="M11.8834 14.95L10.0334 16.8C9.64337 17.19 9.02337 17.19 8.62337 16.81C8.51337 16.7 8.40337 16.6 8.29337 16.49C7.26337 15.45 6.33337 14.36 5.50337 13.22C4.68337 12.08 4.02337 10.94 3.54337 9.81C3.07337 8.67 2.83337 7.58 2.83337 6.54C2.83337 5.86 2.95337 5.21 3.19337 4.61C3.43337 4 3.81337 3.44 4.34337 2.94C4.98337 2.31 5.68337 2 6.42337 2C6.70337 2 6.98337 2.06 7.23337 2.18C7.49337 2.3 7.72337 2.48 7.90337 2.74L10.2234 6.01C10.4034 6.26 10.5334 6.49 10.6234 6.71C10.7134 6.92 10.7634 7.13 10.7634 7.32C10.7634 7.56 10.6934 7.8 10.5534 8.03C10.4234 8.26 10.2334 8.5 9.99337 8.74L9.23337 9.53C9.12337 9.64 9.07337 9.77 9.07337 9.93C9.07337 10.01 9.08338 10.08 9.10338 10.16C9.13338 10.24 9.16338 10.3 9.18338 10.36C9.36338 10.69 9.67337 11.12 10.1134 11.64C10.5634 12.16 11.0434 12.69 11.5634 13.22C11.6634 13.32 11.7734 13.42 11.8734 13.52C12.2734 13.91 12.2834 14.55 11.8834 14.95Z" fill="white"/>
<path d="M22.8033 18.33C22.8033 18.61 22.7533 18.9 22.6533 19.18C22.6233 19.26 22.5933 19.34 22.5533 19.42C22.3833 19.78 22.1634 20.12 21.8734 20.44C21.3834 20.98 20.8433 21.37 20.2333 21.62C20.2233 21.62 20.2134 21.63 20.2034 21.63C19.6133 21.87 18.9733 22 18.2833 22C17.2634 22 16.1733 21.76 15.0233 21.27C13.8733 20.78 12.7233 20.12 11.5833 19.29C11.1933 19 10.8033 18.71 10.4333 18.4L13.7033 15.13C13.9833 15.34 14.2333 15.5 14.4433 15.61C14.4933 15.63 14.5533 15.66 14.6233 15.69C14.7033 15.72 14.7833 15.73 14.8733 15.73C15.0433 15.73 15.1733 15.67 15.2833 15.56L16.0433 14.81C16.2933 14.56 16.5333 14.37 16.7633 14.25C16.9933 14.11 17.2233 14.04 17.4733 14.04C17.6633 14.04 17.8633 14.08 18.0833 14.17C18.3033 14.26 18.5333 14.39 18.7833 14.56L22.0933 16.91C22.3533 17.09 22.5333 17.3 22.6433 17.55C22.7433 17.8 22.8033 18.05 22.8033 18.33Z" fill="white"/>
</svg>
