<svg width="26" height="21" viewBox="0 0 26 21" fill="none" xmlns="http://www.w3.org/2000/svg">
<path d="M22.6394 5.08553C22.6552 5.30787 22.6552 5.53026 22.6552 5.7526C22.6552 12.5344 17.4935 20.3486 8.05928 20.3486C5.15278 20.3486 2.45278 19.5068 0.18158 18.0456C0.594538 18.0933 0.99156 18.1092 1.42041 18.1092C3.81862 18.1092 6.02631 17.2992 7.78927 15.9174C5.53396 15.8697 3.64394 14.3927 2.99275 12.3597C3.31043 12.4073 3.62805 12.4391 3.96162 12.4391C4.42219 12.4391 4.88282 12.3755 5.31162 12.2644C2.96102 11.7879 1.19801 9.72321 1.19801 7.22967V7.16616C1.88093 7.54734 2.67512 7.78557 3.51683 7.8173C2.13505 6.8961 1.22979 5.32376 1.22979 3.54491C1.22979 2.59198 1.48386 1.71845 1.9286 0.956084C4.45392 4.06904 8.24985 6.10196 12.5063 6.32435C12.4269 5.94317 12.3792 5.54615 12.3792 5.14908C12.3792 2.32197 14.6663 0.019043 17.5093 0.019043C18.9863 0.019043 20.3204 0.638457 21.2575 1.63905C22.4169 1.41671 23.5287 0.987861 24.5134 0.400225C24.1322 1.59143 23.3222 2.59203 22.2581 3.22728C23.2905 3.11616 24.2911 2.83021 25.2122 2.43319C24.5135 3.44963 23.64 4.35489 22.6394 5.08553Z" fill="white"/>
</svg>
