<svg width="16" height="16" viewBox="0 0 16 16" fill="none" xmlns="http://www.w3.org/2000/svg">
<path d="M7.94101 14.1404C7.75837 14.1401 7.5758 14.0973 7.42375 14.0118C6.28636 13.3892 4.28454 12.7288 3.03069 12.5627L2.85418 12.538C2.05682 12.4395 1.40061 11.6897 1.40202 10.88L1.41482 3.52566C1.41566 3.04471 1.60515 2.60664 1.95272 2.29056C2.30029 1.97448 2.75107 1.82292 3.22586 1.86622C4.56505 1.97163 6.58511 2.64421 7.72842 3.36423L7.87438 3.44968C7.91695 3.47409 8.00828 3.47422 8.04484 3.45601L8.14235 3.39527C9.28815 2.67852 11.3106 1.99955 12.6562 1.8858C12.6684 1.88582 12.7171 1.88589 12.7293 1.88591C13.1738 1.84392 13.6301 2.00287 13.9705 2.31993C14.317 2.63701 14.5049 3.07562 14.5041 3.55657L14.4913 10.9048C14.4899 11.7206 13.8311 12.4624 13.0273 12.5587L12.8263 12.5828C11.5719 12.7453 9.56171 13.4061 8.44653 14.0194C8.30027 14.1044 8.12365 14.1407 7.94101 14.1404ZM3.07817 2.77313C2.88335 2.77285 2.70668 2.83956 2.56643 2.96721C2.41399 3.10702 2.32841 3.3078 2.32803 3.52697L2.31523 10.8813C2.3146 11.2405 2.62449 11.588 2.97142 11.6372L3.15402 11.6618C4.52351 11.8464 6.62269 12.5374 7.83914 13.2027C7.89389 13.2271 7.97303 13.2333 8.00349 13.2212C9.22227 12.5472 11.336 11.8561 12.7122 11.6755L12.9193 11.6514C13.2664 11.6093 13.5775 11.2566 13.5781 10.8974L13.5909 3.54918C13.5913 3.32392 13.5064 3.12898 13.3544 2.98265C13.1964 2.8424 12.9956 2.77514 12.7703 2.787C12.7582 2.78698 12.7095 2.78691 12.6973 2.78689C11.5343 2.88872 9.65807 3.51311 8.63417 4.15089L8.53664 4.21772C8.20144 4.42423 7.72657 4.42355 7.40426 4.22219L7.25829 4.13674C6.21835 3.49601 4.34431 2.87235 3.15123 2.77323C3.12687 2.7732 3.10252 2.77316 3.07817 2.77313Z" fill="white"/>
<path d="M7.94193 13.629C7.69232 13.6286 7.48568 13.4213 7.48612 13.1717L7.50201 4.03967C7.50245 3.79006 7.7098 3.58337 7.95941 3.58372C8.20902 3.58408 8.41565 3.79137 8.41522 4.04098L8.39933 13.173C8.39888 13.4287 8.19154 13.6293 7.94193 13.629Z" fill="white"/>
<path d="M5.36718 6.31963L3.99737 6.31767C3.74776 6.31731 3.54113 6.11002 3.54156 5.86041C3.542 5.6108 3.74935 5.4041 3.99896 5.40446L5.36877 5.40642C5.61838 5.40678 5.82501 5.61407 5.82458 5.86368C5.82415 6.11329 5.61679 6.31999 5.36718 6.31963Z" fill="white"/>
<path d="M5.82061 8.1467L3.9942 8.14408C3.74459 8.14373 3.53796 7.93644 3.53839 7.68683C3.53882 7.43722 3.74618 7.23052 3.99579 7.23088L5.8222 7.23349C6.07181 7.23385 6.27844 7.44114 6.27801 7.69075C6.27757 7.94036 6.07022 8.14705 5.82061 8.1467Z" fill="white"/>
</svg>
