<svg width="16" height="16" viewBox="0 0 16 16" fill="none" xmlns="http://www.w3.org/2000/svg">
<path d="M10.5646 14.8268L7.52056 14.8224C7.27096 14.8221 7.06432 14.6148 7.06476 14.3652C7.06519 14.1156 7.27254 13.9089 7.52215 13.9092L10.5662 13.9136C12.3074 13.9161 13.1551 13.071 13.1581 11.3299L13.1687 5.24183C13.1717 3.50065 12.327 2.6532 10.5858 2.65071L5.71534 2.64374C3.97416 2.64125 3.12645 3.48628 3.12342 5.22745L3.11601 9.48908C3.11557 9.73869 2.90822 9.94539 2.65861 9.94503C2.409 9.94468 2.20236 9.73739 2.2028 9.48778L2.21022 5.22615C2.21408 3.00401 3.4948 1.72735 5.71693 1.73053L10.5874 1.7375C12.8095 1.74068 14.0858 3.021 14.0819 5.24314L14.0713 11.3312C14.0674 13.5533 12.7867 14.83 10.5646 14.8268Z" fill="white"/>
<path d="M12.1008 6.61013L10.8832 6.60839C9.95785 6.60706 9.21032 5.85716 9.21193 4.93178L9.21405 3.71417C9.21448 3.46456 9.42184 3.25786 9.67145 3.25822C9.92106 3.25858 10.1277 3.46587 10.1273 3.71548L10.1251 4.93309C10.1244 5.35316 10.4647 5.69458 10.8848 5.69518L12.1024 5.69692C12.352 5.69728 12.5587 5.90457 12.5582 6.15418C12.5578 6.40379 12.3504 6.61049 12.1008 6.61013Z" fill="white"/>
<path d="M3.25988 14.2075C3.14421 14.2074 3.02861 14.1646 2.93745 14.0731L1.72196 12.8538C1.54571 12.677 1.54622 12.3847 1.72308 12.2084L2.94281 10.9926C3.11967 10.8163 3.4119 10.8167 3.58814 10.9935C3.76439 11.1703 3.76388 11.4626 3.58702 11.6389L2.69052 12.5325L3.5839 13.4287C3.76015 13.6055 3.75964 13.8978 3.58278 14.0741C3.4913 14.1653 3.37555 14.2077 3.25988 14.2075Z" fill="white"/>
<path d="M5.08634 14.2101C4.97067 14.21 4.85507 14.1672 4.76391 14.0757C4.58766 13.8989 4.58817 13.6067 4.76503 13.4304L5.66153 12.5367L4.76815 11.6405C4.5919 11.4637 4.59241 11.1715 4.76927 10.9952C4.94613 10.8189 5.23835 10.8193 5.4146 10.9961L6.63009 12.2154C6.80634 12.3922 6.80583 12.6845 6.62897 12.8608L5.40924 14.0767C5.31776 14.1678 5.20201 14.2103 5.08634 14.2101Z" fill="white"/>
</svg>
