<svg width="97" height="96" viewBox="0 0 97 96" fill="none" xmlns="http://www.w3.org/2000/svg">
<rect x="0.5" width="96" height="96" rx="14" fill="#2B283A"/>
<path d="M42.8192 47.24C42.7592 47.24 42.7192 47.24 42.6592 47.24C42.5592 47.22 42.4192 47.22 42.2992 47.24C36.4992 47.06 32.1192 42.5 32.1192 36.88C32.1192 31.16 36.7792 26.5 42.4992 26.5C48.2192 26.5 52.8792 31.16 52.8792 36.88C52.8592 42.5 48.4592 47.06 42.8792 47.24C42.8592 47.24 42.8392 47.24 42.8192 47.24ZM42.4992 29.5C38.4392 29.5 35.1192 32.82 35.1192 36.88C35.1192 40.88 38.2392 44.1 42.2192 44.24C42.3392 44.22 42.5992 44.22 42.8592 44.24C46.7792 44.06 49.8592 40.84 49.8792 36.88C49.8792 32.82 46.5592 29.5 42.4992 29.5Z" fill="white"/>
<path d="M57.5792 47.5C57.5192 47.5 57.4592 47.5 57.3992 47.48C56.5792 47.56 55.7392 46.98 55.6592 46.16C55.5792 45.34 56.0792 44.6 56.8992 44.5C57.1392 44.48 57.3992 44.48 57.6192 44.48C60.5392 44.32 62.8192 41.92 62.8192 38.98C62.8192 35.94 60.3592 33.48 57.3192 33.48C56.4992 33.5 55.8192 32.82 55.8192 32C55.8192 31.18 56.4992 30.5 57.3192 30.5C61.9992 30.5 65.8192 34.32 65.8192 39C65.8192 43.6 62.2192 47.32 57.6392 47.5C57.6192 47.5 57.5992 47.5 57.5792 47.5Z" fill="white"/>
<path d="M42.8392 69.1C38.9192 69.1 34.9792 68.1 31.9992 66.1C29.2192 64.26 27.6992 61.74 27.6992 59C27.6992 56.26 29.2192 53.72 31.9992 51.86C37.9992 47.88 47.7192 47.88 53.6792 51.86C56.4392 53.7 57.9792 56.22 57.9792 58.96C57.9792 61.7 56.4592 64.24 53.6792 66.1C50.6792 68.1 46.7592 69.1 42.8392 69.1ZM33.6592 54.38C31.7392 55.66 30.6992 57.3 30.6992 59.02C30.6992 60.72 31.7592 62.36 33.6592 63.62C38.6392 66.96 47.0392 66.96 52.0192 63.62C53.9392 62.34 54.9792 60.7 54.9792 58.98C54.9792 57.28 53.9192 55.64 52.0192 54.38C47.0392 51.06 38.6392 51.06 33.6592 54.38Z" fill="white"/>
<path d="M61.1792 65.5C60.4792 65.5 59.8592 65.02 59.7192 64.3C59.5592 63.48 60.0792 62.7 60.8792 62.52C62.1392 62.26 63.2992 61.76 64.1992 61.06C65.3392 60.2 65.9592 59.12 65.9592 57.98C65.9592 56.84 65.3392 55.76 64.2192 54.92C63.3392 54.24 62.2392 53.76 60.9392 53.46C60.1392 53.28 59.6192 52.48 59.7992 51.66C59.9792 50.86 60.7792 50.34 61.5992 50.52C63.3192 50.9 64.8192 51.58 66.0392 52.52C67.8992 53.92 68.9592 55.9 68.9592 57.98C68.9592 60.06 67.8792 62.04 66.0192 63.46C64.7792 64.42 63.2192 65.12 61.4992 65.46C61.3792 65.5 61.2792 65.5 61.1792 65.5Z" fill="white"/>
</svg>
