<svg width="97" height="96" viewBox="0 0 97 96" fill="none" xmlns="http://www.w3.org/2000/svg">
<rect x="0.5" width="96" height="96" rx="14" fill="#2B283A"/>
<path d="M48.5 68.16C47.9 68.16 47.3 68.02 46.8 67.74C43.06 65.7 36.48 63.54 32.36 63L31.78 62.92C29.16 62.6 27 60.14 27 57.48V33.32C27 31.74 27.62 30.3 28.76 29.26C29.9 28.22 31.38 27.72 32.94 27.86C37.34 28.2 43.98 30.4 47.74 32.76L48.22 33.04C48.36 33.12 48.66 33.12 48.78 33.06L49.1 32.86C52.86 30.5 59.5 28.26 63.92 27.88C63.96 27.88 64.12 27.88 64.16 27.88C65.62 27.74 67.12 28.26 68.24 29.3C69.38 30.34 70 31.78 70 33.36V57.5C70 60.18 67.84 62.62 65.2 62.94L64.54 63.02C60.42 63.56 53.82 65.74 50.16 67.76C49.68 68.04 49.1 68.16 48.5 68.16ZM32.46 30.84C31.82 30.84 31.24 31.06 30.78 31.48C30.28 31.94 30 32.6 30 33.32V57.48C30 58.66 31.02 59.8 32.16 59.96L32.76 60.04C37.26 60.64 44.16 62.9 48.16 65.08C48.34 65.16 48.6 65.18 48.7 65.14C52.7 62.92 59.64 60.64 64.16 60.04L64.84 59.96C65.98 59.82 67 58.66 67 57.48V33.34C67 32.6 66.72 31.96 66.22 31.48C65.7 31.02 65.04 30.8 64.3 30.84C64.26 30.84 64.1 30.84 64.06 30.84C60.24 31.18 54.08 33.24 50.72 35.34L50.4 35.56C49.3 36.24 47.74 36.24 46.68 35.58L46.2 35.3C42.78 33.2 36.62 31.16 32.7 30.84C32.62 30.84 32.54 30.84 32.46 30.84Z" fill="white"/>
<path d="M48.5 66.48C47.68 66.48 47 65.8 47 64.98V34.98C47 34.16 47.68 33.48 48.5 33.48C49.32 33.48 50 34.16 50 34.98V64.98C50 65.82 49.32 66.48 48.5 66.48Z" fill="white"/>
<path d="M40 42.48H35.5C34.68 42.48 34 41.8 34 40.98C34 40.16 34.68 39.48 35.5 39.48H40C40.82 39.48 41.5 40.16 41.5 40.98C41.5 41.8 40.82 42.48 40 42.48Z" fill="white"/>
<path d="M41.5 48.48H35.5C34.68 48.48 34 47.8 34 46.98C34 46.16 34.68 45.48 35.5 45.48H41.5C42.32 45.48 43 46.16 43 46.98C43 47.8 42.32 48.48 41.5 48.48Z" fill="white"/>
</svg>
