<svg width="96" height="96" viewBox="0 0 96 96" fill="none" xmlns="http://www.w3.org/2000/svg">
<rect width="96" height="96" rx="14" fill="#2B283A"/>
<path d="M65 54.5C64.18 54.5 63.5 53.82 63.5 53C63.5 52.18 64.18 51.5 65 51.5C66.18 51.5 66.44 51.32 66.46 51.32C66.5 51.2 66.5 50.5 66.5 50V46C66.5 45.5 66.5 44.82 66.42 44.64C66.4 44.66 66.1 44.5 65 44.5C64.18 44.5 63.5 43.82 63.5 43C63.5 42.18 64.18 41.5 65 41.5C69.16 41.5 69.5 43.54 69.5 46V50C69.5 52.46 69.16 54.5 65 54.5Z" fill="white"/>
<path d="M44 57.5C43.66 57.5 43.3 57.38 43.02 57.14C42.4 56.6 42.32 55.66 42.86 55.02L47.02 50.16C47.08 49.98 47.02 49.82 46.98 49.74C46.92 49.64 46.8 49.5 46.54 49.5H41.94C40.68 49.5 39.54 48.84 38.9 47.76C38.26 46.68 38.26 45.36 38.9 44.26L42.8 39.1C43.3 38.44 44.24 38.3 44.9 38.8C45.56 39.3 45.7 40.24 45.2 40.9L41.42 45.9C41.4 45.96 41.48 46.14 41.52 46.24C41.58 46.34 41.7 46.48 41.96 46.48H46.56C47.82 46.48 48.96 47.14 49.6 48.22C50.24 49.3 50.24 50.62 49.6 51.72C49.56 51.8 49.5 51.88 49.44 51.94L45.16 56.94C44.84 57.32 44.42 57.5 44 57.5Z" fill="white"/>
<path d="M38 63.5C29.18 63.5 26.5 60.82 26.5 52V44C26.5 35.18 29.18 32.5 38 32.5C38.82 32.5 39.5 33.18 39.5 34C39.5 34.82 38.82 35.5 38 35.5C30.86 35.5 29.5 36.86 29.5 44V52C29.5 59.14 30.86 60.5 38 60.5C38.82 60.5 39.5 61.18 39.5 62C39.5 62.82 38.82 63.5 38 63.5Z" fill="white"/>
<path d="M50 63.5C49.18 63.5 48.5 62.82 48.5 62C48.5 61.18 49.18 60.5 50 60.5C57.14 60.5 58.5 59.14 58.5 52V44C58.5 36.86 57.14 35.5 50 35.5C49.18 35.5 48.5 34.82 48.5 34C48.5 33.18 49.18 32.5 50 32.5C58.82 32.5 61.5 35.18 61.5 44V52C61.5 60.82 58.82 63.5 50 63.5Z" fill="white"/>
</svg>
