<svg width="8" height="9" viewBox="0 0 8 9" fill="none" xmlns="http://www.w3.org/2000/svg">
<path d="M6.19218 0.893361L6.16109 2.43156C6.15666 2.64261 6.29011 2.92285 6.46036 3.04892L7.46559 3.81339C8.11007 4.30136 8.00351 4.89783 7.23193 5.14025L5.92026 5.5483C5.70097 5.61699 5.46921 5.85612 5.412 6.07927L5.0974 7.27208C4.84818 8.21334 4.2311 8.30581 3.72114 7.4771L3.00882 6.31935C2.87931 6.10811 2.57113 5.94938 2.32758 5.96121L0.97186 6.02827C0.00174702 6.07558 -0.273269 5.51509 0.361173 4.77731L1.16642 3.84496C1.31689 3.67065 1.38646 3.34606 1.31784 3.12679L0.906143 1.81118C0.668022 1.03969 1.09899 0.614139 1.86564 0.866876L3.06227 1.26228C3.26509 1.32751 3.56957 1.2833 3.74026 1.15773L4.9919 0.258485C5.67055 -0.223529 6.20986 0.0613517 6.19218 0.893361Z" fill="#E7693F"/>
</svg>
