<svg width="16" height="16" viewBox="0 0 16 16" fill="none" xmlns="http://www.w3.org/2000/svg">
<path d="M6.14944 7.97735C6.13117 7.97732 6.119 7.97731 6.10073 7.97728C6.0703 7.97115 6.02769 7.97109 5.99115 7.97712C4.22571 7.91981 2.89484 6.52982 2.89782 4.81909C2.90085 3.07791 4.32183 1.66142 6.06301 1.66391C7.8042 1.66641 9.22024 3.08695 9.21721 4.82813C9.20814 6.53886 7.86636 7.92502 6.1677 7.97738C6.16161 7.97737 6.15552 7.97736 6.14944 7.97735ZM6.06143 2.57712C4.82555 2.57535 3.81318 3.58452 3.81103 4.82039C3.80891 6.038 4.75694 7.01953 5.96838 7.06388C6.00492 7.05785 6.08407 7.05796 6.1632 7.06416C7.35655 7.01108 8.29582 6.03225 8.304 4.82682C8.30615 3.59095 7.2973 2.57889 6.06143 2.57712Z" fill="white"/>
<path d="M10.6423 8.06294C10.6241 8.06292 10.6058 8.06289 10.5875 8.05677C10.3379 8.08077 10.0825 7.90385 10.0586 7.65421C10.0347 7.40456 10.1873 7.17952 10.4369 7.14944C10.51 7.14346 10.5891 7.14357 10.6561 7.14366C11.545 7.09623 12.2403 6.36666 12.2419 5.47172C12.2435 4.54634 11.496 3.79644 10.5706 3.79511C10.321 3.80084 10.1144 3.59355 10.1148 3.34394C10.1152 3.09433 10.3226 2.88764 10.5722 2.88799C11.9968 2.89003 13.1576 4.05451 13.1551 5.47911C13.1527 6.87936 12.0548 8.01017 10.6606 8.06297C10.6545 8.06296 10.6484 8.06295 10.6423 8.06294Z" fill="white"/>
<path d="M6.14395 14.6316C4.9507 14.6299 3.75188 14.3238 2.84582 13.7137C2.00056 13.1524 1.5392 12.3846 1.54066 11.5505C1.54211 10.7165 2.00615 9.94396 2.85337 9.37899C4.68189 8.17008 7.64068 8.17432 9.45281 9.38843C10.292 9.94973 10.7594 10.7175 10.758 11.5516C10.7565 12.3856 10.2925 13.1581 9.44526 13.7231C8.531 14.3306 7.33721 14.6333 6.14395 14.6316ZM3.35734 10.1468C2.77221 10.5356 2.45476 11.0344 2.45385 11.5579C2.45295 12.0754 2.77475 12.5751 3.35245 12.9595C4.8666 13.9783 7.42358 13.982 8.94127 12.9675C9.5264 12.5787 9.84385 12.0799 9.84476 11.5563C9.84566 11.0389 9.52386 10.5392 8.94616 10.1548C7.432 9.14202 4.87502 9.13836 3.35734 10.1468Z" fill="white"/>
<path d="M11.7286 13.5437C11.5155 13.5434 11.327 13.397 11.2848 13.1778C11.2365 12.9281 11.3952 12.6909 11.6389 12.6365C12.0225 12.5579 12.3759 12.4062 12.6502 12.1935C12.9977 11.9322 13.187 11.6037 13.1876 11.2567C13.1882 10.9097 13.0001 10.5807 12.6596 10.3245C12.3921 10.1171 12.0575 9.97052 11.6619 9.87863C11.4185 9.82349 11.2606 9.57974 11.3159 9.33021C11.3711 9.08677 11.6149 8.92883 11.8644 8.98398C12.3878 9.1004 12.844 9.30805 13.2149 9.59472C13.7803 10.0217 14.1019 10.6249 14.1008 11.258C14.0997 11.8912 13.7699 12.4934 13.203 12.9249C12.825 13.2165 12.3498 13.429 11.826 13.5317C11.7895 13.5438 11.759 13.5438 11.7286 13.5437Z" fill="white"/>
</svg>
